<svg width="434" height="286" viewBox="0 0 434 286" fill="none" xmlns="http://www.w3.org/2000/svg">
<rect y="222" width="434" height="64" fill="#405D5D"/>
<mask id="mask0" mask-type="alpha" maskUnits="userSpaceOnUse" x="0" y="0" width="434" height="223">
<rect width="434" height="222.936" fill="#C4C4C4"/>
</mask>
<g mask="url(#mask0)">
<path fill-rule="evenodd" clip-rule="evenodd" d="M216.725 329.893C277.222 329.893 326.265 280.85 326.265 220.353C326.265 159.855 277.222 110.813 216.725 110.813C156.228 110.813 107.185 159.855 107.185 220.353C107.185 280.85 156.228 329.893 216.725 329.893ZM216.725 352.323C289.61 352.323 348.695 293.238 348.695 220.353C348.695 147.468 289.61 88.3828 216.725 88.3828C143.84 88.3828 84.7549 147.468 84.7549 220.353C84.7549 293.238 143.84 352.323 216.725 352.323Z" fill="#405D5D"/>
<path fill-rule="evenodd" clip-rule="evenodd" d="M216.725 399.918C315.896 399.918 396.29 319.524 396.29 220.353C396.29 121.182 315.896 40.7882 216.725 40.7882C117.554 40.7882 37.1605 121.182 37.1605 220.353C37.1605 319.524 117.554 399.918 216.725 399.918ZM216.725 422.348C328.284 422.348 418.72 331.911 418.72 220.353C418.72 108.794 328.284 18.3582 216.725 18.3582C105.167 18.3582 14.7305 108.794 14.7305 220.353C14.7305 331.911 105.167 422.348 216.725 422.348Z" fill="#405D5D"/>
<path d="M208.425 0H230.85V440.596H208.425V0Z" fill="#405D5D"/>
<path d="M434 212.383L434 233.489L-9.2259e-07 233.489L0 212.383L434 212.383Z" fill="#405D5D"/>
</g>
<path d="M32.6502 232.1C36.3169 232.1 39.5335 232.817 42.3002 234.25C45.1002 235.683 47.2502 237.733 48.7502 240.4C50.2835 243.033 51.0502 246.1 51.0502 249.6C51.0502 253.1 50.2835 256.167 48.7502 258.8C47.2502 261.4 45.1002 263.417 42.3002 264.85C39.5335 266.283 36.3169 267 32.6502 267H20.4502V232.1H32.6502ZM32.4002 261.05C36.0669 261.05 38.9002 260.05 40.9002 258.05C42.9002 256.05 43.9002 253.233 43.9002 249.6C43.9002 245.967 42.9002 243.133 40.9002 241.1C38.9002 239.033 36.0669 238 32.4002 238H27.4502V261.05H32.4002Z" fill="white"/>
<path d="M63.29 243.6C64.19 242.133 65.3567 240.983 66.79 240.15C68.2567 239.317 69.9234 238.9 71.79 238.9V246.25H69.94C67.74 246.25 66.0734 246.767 64.94 247.8C63.84 248.833 63.29 250.633 63.29 253.2V267H56.29V239.3H63.29V243.6Z" fill="white"/>
<path d="M103.005 239.3L85.8549 280.1H78.4049L84.4049 266.3L73.3049 239.3H81.1549L88.3049 258.65L95.5549 239.3H103.005Z" fill="white"/>
<path d="M132.228 242.9C132.228 244.767 131.778 246.517 130.878 248.15C130.012 249.783 128.628 251.1 126.728 252.1C124.862 253.1 122.495 253.6 119.628 253.6H113.778V267H106.778V232.1H119.628C122.328 232.1 124.628 232.567 126.528 233.5C128.428 234.433 129.845 235.717 130.778 237.35C131.745 238.983 132.228 240.833 132.228 242.9ZM119.328 247.95C121.262 247.95 122.695 247.517 123.628 246.65C124.562 245.75 125.028 244.5 125.028 242.9C125.028 239.5 123.128 237.8 119.328 237.8H113.778V247.95H119.328Z" fill="white"/>
<path d="M144.198 243.6C145.098 242.133 146.265 240.983 147.698 240.15C149.165 239.317 150.832 238.9 152.698 238.9V246.25H150.848C148.648 246.25 146.982 246.767 145.848 247.8C144.748 248.833 144.198 250.633 144.198 253.2V267H137.198V239.3H144.198V243.6Z" fill="white"/>
<path d="M155.613 253.05C155.613 250.25 156.163 247.767 157.263 245.6C158.396 243.433 159.913 241.767 161.813 240.6C163.746 239.433 165.896 238.85 168.263 238.85C170.33 238.85 172.13 239.267 173.663 240.1C175.23 240.933 176.48 241.983 177.413 243.25V239.3H184.463V267H177.413V262.95C176.513 264.25 175.263 265.333 173.663 266.2C172.096 267.033 170.28 267.45 168.213 267.45C165.88 267.45 163.746 266.85 161.813 265.65C159.913 264.45 158.396 262.767 157.263 260.6C156.163 258.4 155.613 255.883 155.613 253.05ZM177.413 253.15C177.413 251.45 177.08 250 176.413 248.8C175.746 247.567 174.846 246.633 173.713 246C172.58 245.333 171.363 245 170.063 245C168.763 245 167.563 245.317 166.463 245.95C165.363 246.583 164.463 247.517 163.763 248.75C163.096 249.95 162.763 251.383 162.763 253.05C162.763 254.717 163.096 256.183 163.763 257.45C164.463 258.683 165.363 259.633 166.463 260.3C167.596 260.967 168.796 261.3 170.063 261.3C171.363 261.3 172.58 260.983 173.713 260.35C174.846 259.683 175.746 258.75 176.413 257.55C177.08 256.317 177.413 254.85 177.413 253.15Z" fill="white"/>
<path d="M189.5 253.15C189.5 250.283 190.083 247.783 191.25 245.65C192.416 243.483 194.033 241.817 196.1 240.65C198.166 239.45 200.533 238.85 203.2 238.85C206.633 238.85 209.466 239.717 211.7 241.45C213.966 243.15 215.483 245.55 216.25 248.65H208.7C208.3 247.45 207.616 246.517 206.65 245.85C205.716 245.15 204.55 244.8 203.15 244.8C201.15 244.8 199.566 245.533 198.4 247C197.233 248.433 196.65 250.483 196.65 253.15C196.65 255.783 197.233 257.833 198.4 259.3C199.566 260.733 201.15 261.45 203.15 261.45C205.983 261.45 207.833 260.183 208.7 257.65H216.25C215.483 260.65 213.966 263.033 211.7 264.8C209.433 266.567 206.6 267.45 203.2 267.45C200.533 267.45 198.166 266.867 196.1 265.7C194.033 264.5 192.416 262.833 191.25 260.7C190.083 258.533 189.5 256.017 189.5 253.15Z" fill="white"/>
<path d="M229.528 245.05V258.45C229.528 259.383 229.745 260.067 230.178 260.5C230.645 260.9 231.411 261.1 232.478 261.1H235.728V267H231.328C225.428 267 222.478 264.133 222.478 258.4V245.05H219.178V239.3H222.478V232.45H229.528V239.3H235.728V245.05H229.528Z" fill="white"/>
<path d="M244.313 236C243.079 236 242.046 235.617 241.213 234.85C240.413 234.05 240.013 233.067 240.013 231.9C240.013 230.733 240.413 229.767 241.213 229C242.046 228.2 243.079 227.8 244.313 227.8C245.546 227.8 246.563 228.2 247.363 229C248.196 229.767 248.613 230.733 248.613 231.9C248.613 233.067 248.196 234.05 247.363 234.85C246.563 235.617 245.546 236 244.313 236ZM247.763 239.3V267H240.763V239.3H247.763Z" fill="white"/>
<path d="M252.879 253.15C252.879 250.283 253.462 247.783 254.629 245.65C255.795 243.483 257.412 241.817 259.479 240.65C261.545 239.45 263.912 238.85 266.579 238.85C270.012 238.85 272.845 239.717 275.079 241.45C277.345 243.15 278.862 245.55 279.629 248.65H272.079C271.679 247.45 270.995 246.517 270.029 245.85C269.095 245.15 267.929 244.8 266.529 244.8C264.529 244.8 262.945 245.533 261.779 247C260.612 248.433 260.029 250.483 260.029 253.15C260.029 255.783 260.612 257.833 261.779 259.3C262.945 260.733 264.529 261.45 266.529 261.45C269.362 261.45 271.212 260.183 272.079 257.65H279.629C278.862 260.65 277.345 263.033 275.079 264.8C272.812 266.567 269.979 267.45 266.579 267.45C263.912 267.45 261.545 266.867 259.479 265.7C257.412 264.5 255.795 262.833 254.629 260.7C253.462 258.533 252.879 256.017 252.879 253.15Z" fill="white"/>
<path d="M310.507 252.55C310.507 253.55 310.44 254.45 310.307 255.25H290.057C290.223 257.25 290.923 258.817 292.157 259.95C293.39 261.083 294.907 261.65 296.707 261.65C299.307 261.65 301.157 260.533 302.257 258.3H309.807C309.007 260.967 307.473 263.167 305.207 264.9C302.94 266.6 300.157 267.45 296.857 267.45C294.19 267.45 291.79 266.867 289.657 265.7C287.557 264.5 285.907 262.817 284.707 260.65C283.54 258.483 282.957 255.983 282.957 253.15C282.957 250.283 283.54 247.767 284.707 245.6C285.873 243.433 287.507 241.767 289.607 240.6C291.707 239.433 294.123 238.85 296.857 238.85C299.49 238.85 301.84 239.417 303.907 240.55C306.007 241.683 307.624 243.3 308.757 245.4C309.923 247.467 310.507 249.85 310.507 252.55ZM303.257 250.55C303.224 248.75 302.573 247.317 301.307 246.25C300.04 245.15 298.49 244.6 296.657 244.6C294.923 244.6 293.457 245.133 292.257 246.2C291.09 247.233 290.373 248.683 290.107 250.55H303.257Z" fill="white"/>
<path d="M318.716 267.35C317.45 267.35 316.4 266.967 315.566 266.2C314.766 265.4 314.366 264.417 314.366 263.25C314.366 262.083 314.766 261.117 315.566 260.35C316.4 259.55 317.45 259.15 318.716 259.15C319.95 259.15 320.966 259.55 321.766 260.35C322.566 261.117 322.966 262.083 322.966 263.25C322.966 264.417 322.566 265.4 321.766 266.2C320.966 266.967 319.95 267.35 318.716 267.35Z" fill="white"/>
<path d="M358.454 267H351.454L335.604 243.05V267H328.604V232.05H335.604L351.454 256.05V232.05H358.454V267Z" fill="white"/>
<path d="M372.372 237.75V246.5H384.122V252.05H372.372V261.3H385.622V267H365.372V232.05H385.622V237.75H372.372Z" fill="white"/>
<path d="M415.733 232.1V237.75H406.433V267H399.433V237.75H390.133V232.1H415.733Z" fill="white"/>
</svg>
