<svg width="103" height="68" viewBox="0 0 103 68" fill="none" xmlns="http://www.w3.org/2000/svg">
<rect y="52.6868" width="103" height="15.1889" fill="white"/>
<mask id="mask0" mask-type="alpha" maskUnits="userSpaceOnUse" x="0" y="0" width="103" height="53">
<rect width="103" height="52.9088" fill="#C4C4C4"/>
</mask>
<g mask="url(#mask0)">
<path fill-rule="evenodd" clip-rule="evenodd" d="M51.4343 78.2926C65.7919 78.2926 77.4311 66.6535 77.4311 52.2959C77.4311 37.9382 65.7919 26.2991 51.4343 26.2991C37.0767 26.2991 25.4375 37.9382 25.4375 52.2959C25.4375 66.6535 37.0767 78.2926 51.4343 78.2926ZM51.4343 83.6159C68.7319 83.6159 82.7543 69.5934 82.7543 52.2959C82.7543 34.9983 68.7319 20.9758 51.4343 20.9758C34.1367 20.9758 20.1143 34.9983 20.1143 52.2959C20.1143 69.5934 34.1367 83.6159 51.4343 83.6159Z" fill="white"/>
<path fill-rule="evenodd" clip-rule="evenodd" d="M51.4359 94.9113C74.9718 94.9113 94.0515 75.8317 94.0515 52.2958C94.0515 28.7598 74.9718 9.68018 51.4359 9.68018C27.9 9.68018 8.82032 28.7598 8.82032 52.2958C8.82032 75.8317 27.9 94.9113 51.4359 94.9113ZM51.4359 100.235C77.9118 100.235 99.3747 78.7717 99.3747 52.2958C99.3747 25.8199 77.9118 4.35693 51.4359 4.35693C24.96 4.35693 3.49707 25.8199 3.49707 52.2958C3.49707 78.7717 24.96 100.235 51.4359 100.235Z" fill="white"/>
<path d="M49.4648 0H54.787V104.565H49.4648V0Z" fill="white"/>
<path d="M103 50.4041L103 55.4132L-2.18956e-07 55.4132L0 50.404L103 50.4041Z" fill="white"/>
</g>
<path d="M7.74695 55.0837C8.61715 55.0837 9.38056 55.2538 10.0372 55.594C10.7017 55.9342 11.2119 56.4207 11.5679 57.0536C11.9318 57.6785 12.1138 58.4063 12.1138 59.237C12.1138 60.0676 11.9318 60.7954 11.5679 61.4204C11.2119 62.0374 10.7017 62.516 10.0372 62.8562C9.38056 63.1964 8.61715 63.3665 7.74695 63.3665H4.85156V55.0837H7.74695ZM7.68762 61.9544C8.55782 61.9544 9.23025 61.717 9.7049 61.2424C10.1796 60.7677 10.4169 60.0993 10.4169 59.237C10.4169 58.3747 10.1796 57.7023 9.7049 57.2197C9.23025 56.7292 8.55782 56.484 7.68762 56.484H6.51285V61.9544H7.68762Z" fill="#405D5D"/>
<path d="M15.0186 57.813C15.2322 57.4649 15.5091 57.192 15.8493 56.9942C16.1973 56.7965 16.5929 56.6976 17.0359 56.6976V58.4419H16.5968C16.0747 58.4419 15.6792 58.5645 15.4102 58.8098C15.1492 59.055 15.0186 59.4822 15.0186 60.0913V63.3665H13.3573V56.7925H15.0186V57.813Z" fill="#405D5D"/>
<path d="M24.444 56.7925L20.3739 66.4754H18.6058L20.0297 63.2003L17.3954 56.7925H19.2584L20.9553 61.3848L22.6759 56.7925H24.444Z" fill="#405D5D"/>
<path d="M31.3796 57.6469C31.3796 58.0899 31.2728 58.5052 31.0592 58.8928C30.8535 59.2805 30.5252 59.593 30.0743 59.8303C29.6312 60.0676 29.0696 60.1863 28.3892 60.1863H27.0009V63.3665H25.3396V55.0837H28.3892C29.03 55.0837 29.5759 55.1945 30.0268 55.416C30.4777 55.6375 30.8139 55.9421 31.0354 56.3297C31.2648 56.7173 31.3796 57.1564 31.3796 57.6469ZM28.318 58.8454C28.7769 58.8454 29.117 58.7425 29.3385 58.5369C29.56 58.3233 29.6708 58.0266 29.6708 57.6469C29.6708 56.84 29.2199 56.4365 28.318 56.4365H27.0009V58.8454H28.318Z" fill="#405D5D"/>
<path d="M34.2203 57.813C34.4339 57.4649 34.7108 57.192 35.051 56.9942C35.3991 56.7965 35.7946 56.6976 36.2376 56.6976V58.4419H35.7986C35.2764 58.4419 34.8809 58.5645 34.6119 58.8098C34.3509 59.055 34.2203 59.4822 34.2203 60.0913V63.3665H32.559V56.7925H34.2203V57.813Z" fill="#405D5D"/>
<path d="M36.9294 60.0557C36.9294 59.3912 37.0599 58.8019 37.321 58.2877C37.59 57.7734 37.9499 57.3779 38.4008 57.101C38.8597 56.8241 39.3699 56.6857 39.9316 56.6857C40.4221 56.6857 40.8492 56.7846 41.2132 56.9824C41.585 57.1801 41.8816 57.4293 42.1031 57.7299V56.7925H43.7763V63.3665H42.1031V62.4053C41.8895 62.7138 41.5929 62.9709 41.2132 63.1766C40.8413 63.3744 40.4102 63.4733 39.9197 63.4733C39.366 63.4733 38.8597 63.3309 38.4008 63.0461C37.9499 62.7613 37.59 62.3618 37.321 61.8476C37.0599 61.3254 36.9294 60.7282 36.9294 60.0557ZM42.1031 60.0795C42.1031 59.676 42.024 59.3319 41.8658 59.0471C41.7076 58.7544 41.494 58.5329 41.225 58.3826C40.956 58.2244 40.6673 58.1453 40.3588 58.1453C40.0502 58.1453 39.7655 58.2204 39.5044 58.3707C39.2433 58.521 39.0297 58.7425 38.8636 59.0352C38.7054 59.32 38.6263 59.6602 38.6263 60.0557C38.6263 60.4513 38.7054 60.7994 38.8636 61.1C39.0297 61.3927 39.2433 61.6181 39.5044 61.7764C39.7734 61.9346 40.0582 62.0137 40.3588 62.0137C40.6673 62.0137 40.956 61.9385 41.225 61.7882C41.494 61.63 41.7076 61.4085 41.8658 61.1237C42.024 60.831 42.1031 60.4829 42.1031 60.0795Z" fill="#405D5D"/>
<path d="M44.9716 60.0795C44.9716 59.3991 45.1101 58.8058 45.387 58.2995C45.6638 57.7853 46.0475 57.3898 46.538 57.1129C47.0285 56.8281 47.5901 56.6857 48.223 56.6857C49.0378 56.6857 49.7103 56.8914 50.2403 57.3027C50.7782 57.7062 51.1382 58.2758 51.3201 59.0115H49.5283C49.4334 58.7267 49.2712 58.5052 49.0418 58.347C48.8203 58.1809 48.5434 58.0978 48.2112 58.0978C47.7365 58.0978 47.3607 58.2718 47.0838 58.6199C46.807 58.9601 46.6685 59.4466 46.6685 60.0795C46.6685 60.7044 46.807 61.191 47.0838 61.539C47.3607 61.8792 47.7365 62.0493 48.2112 62.0493C48.8836 62.0493 49.3226 61.7487 49.5283 61.1474H51.3201C51.1382 61.8594 50.7782 62.4251 50.2403 62.8443C49.7024 63.2636 49.0299 63.4733 48.223 63.4733C47.5901 63.4733 47.0285 63.3348 46.538 63.0579C46.0475 62.7731 45.6638 62.3776 45.387 61.8713C45.1101 61.3571 44.9716 60.7598 44.9716 60.0795Z" fill="#405D5D"/>
<path d="M54.4714 58.1571V61.3373C54.4714 61.5588 54.5228 61.721 54.6257 61.8238C54.7364 61.9188 54.9184 61.9662 55.1715 61.9662H55.9428V63.3665H54.8986C53.4984 63.3665 52.7982 62.6861 52.7982 61.3254V58.1571H52.0151V56.7925H52.7982V55.1668H54.4714V56.7925H55.9428V58.1571H54.4714Z" fill="#405D5D"/>
<path d="M57.9802 56.0093C57.6875 56.0093 57.4423 55.9183 57.2445 55.7364C57.0546 55.5465 56.9597 55.3132 56.9597 55.0363C56.9597 54.7594 57.0546 54.53 57.2445 54.348C57.4423 54.1582 57.6875 54.0632 57.9802 54.0632C58.2729 54.0632 58.5142 54.1582 58.7041 54.348C58.9018 54.53 59.0007 54.7594 59.0007 55.0363C59.0007 55.3132 58.9018 55.5465 58.7041 55.7364C58.5142 55.9183 58.2729 56.0093 57.9802 56.0093ZM58.799 56.7925V63.3665H57.1377V56.7925H58.799Z" fill="#405D5D"/>
<path d="M60.0132 60.0795C60.0132 59.3991 60.1516 58.8058 60.4285 58.2995C60.7054 57.7853 61.0891 57.3898 61.5795 57.1129C62.07 56.8281 62.6317 56.6857 63.2646 56.6857C64.0794 56.6857 64.7518 56.8914 65.2818 57.3027C65.8198 57.7062 66.1797 58.2758 66.3617 59.0115H64.5699C64.4749 58.7267 64.3128 58.5052 64.0833 58.347C63.8618 58.1809 63.5849 58.0978 63.2527 58.0978C62.778 58.0978 62.4023 58.2718 62.1254 58.6199C61.8485 58.9601 61.7101 59.4466 61.7101 60.0795C61.7101 60.7044 61.8485 61.191 62.1254 61.539C62.4023 61.8792 62.778 62.0493 63.2527 62.0493C63.9251 62.0493 64.3642 61.7487 64.5699 61.1474H66.3617C66.1797 61.8594 65.8198 62.4251 65.2818 62.8443C64.7439 63.2636 64.0715 63.4733 63.2646 63.4733C62.6317 63.4733 62.07 63.3348 61.5795 63.0579C61.0891 62.7731 60.7054 62.3776 60.4285 61.8713C60.1516 61.3571 60.0132 60.7598 60.0132 60.0795Z" fill="#405D5D"/>
<path d="M73.6899 59.9371C73.6899 60.1744 73.6741 60.388 73.6424 60.5779H68.8365C68.8761 61.0525 69.0422 61.4243 69.3349 61.6933C69.6276 61.9623 69.9876 62.0968 70.4148 62.0968C71.0318 62.0968 71.4709 61.8317 71.7319 61.3017H73.5238C73.3339 61.9346 72.97 62.4567 72.4321 62.8681C71.8941 63.2715 71.2336 63.4733 70.4504 63.4733C69.8175 63.4733 69.2479 63.3348 68.7416 63.0579C68.2432 62.7731 67.8516 62.3736 67.5668 61.8594C67.29 61.3452 67.1515 60.7519 67.1515 60.0795C67.1515 59.3991 67.29 58.8019 67.5668 58.2877C67.8437 57.7734 68.2314 57.3779 68.7297 57.101C69.2281 56.8241 69.8017 56.6857 70.4504 56.6857C71.0753 56.6857 71.6331 56.8202 72.1235 57.0892C72.6219 57.3581 73.0056 57.7418 73.2746 58.2402C73.5515 58.7307 73.6899 59.2963 73.6899 59.9371ZM71.9693 59.4624C71.9614 59.0352 71.8071 58.6951 71.5065 58.4419C71.2059 58.1809 70.838 58.0503 70.4029 58.0503C69.9915 58.0503 69.6435 58.1769 69.3587 58.4301C69.0818 58.6753 68.9117 59.0194 68.8484 59.4624H71.9693Z" fill="#405D5D"/>
<path d="M75.6382 63.4495C75.3376 63.4495 75.0884 63.3585 74.8906 63.1766C74.7008 62.9867 74.6058 62.7534 74.6058 62.4765C74.6058 62.1996 74.7008 61.9702 74.8906 61.7882C75.0884 61.5984 75.3376 61.5034 75.6382 61.5034C75.9309 61.5034 76.1722 61.5984 76.362 61.7882C76.5519 61.9702 76.6468 62.1996 76.6468 62.4765C76.6468 62.7534 76.5519 62.9867 76.362 63.1766C76.1722 63.3585 75.9309 63.4495 75.6382 63.4495Z" fill="#405D5D"/>
<path d="M85.0692 63.3665H83.4079L79.6462 57.6825V63.3665H77.985V55.0719H79.6462L83.4079 60.7677V55.0719H85.0692V63.3665Z" fill="#405D5D"/>
<path d="M88.3722 56.4246V58.5013H91.1608V59.8184H88.3722V62.0137H91.5168V63.3665H86.7109V55.0719H91.5168V56.4246H88.3722Z" fill="#405D5D"/>
<path d="M98.663 55.0837V56.4246H96.4559V63.3665H94.7946V56.4246H92.5874V55.0837H98.663Z" fill="#405D5D"/>
</svg>
